<?xml version="1.0" encoding="utf-8"?>
<!-- Generator: Adobe Illustrator 21.1.0, SVG Export Plug-In . SVG Version: 6.00 Build 0)  -->
<svg version="1.1" id="レイヤー_1" xmlns="http://www.w3.org/2000/svg" xmlns:xlink="http://www.w3.org/1999/xlink" x="0px"
	 y="0px" width="64px" height="64px" viewBox="0 0 64 64" enable-background="new 0 0 64 64" xml:space="preserve">
<g>
	<path d="M32,5.8c8.5,0,9.6,0,12.9,0.2c3.1,0.1,4.8,0.7,5.9,1.1c1.5,0.6,2.6,1.3,3.7,2.4c1.1,1.1,1.8,2.2,2.4,3.7
		c0.4,1.1,1,2.8,1.1,5.9c0.2,3.4,0.2,4.4,0.2,12.9s0,9.6-0.2,12.9c-0.1,3.1-0.7,4.8-1.1,5.9c-0.6,1.5-1.3,2.6-2.4,3.7
		c-1.1,1.1-2.2,1.8-3.7,2.4c-1.1,0.4-2.8,1-5.9,1.1c-3.4,0.2-4.4,0.2-12.9,0.2s-9.6,0-12.9-0.2c-3.1-0.1-4.8-0.7-5.9-1.1
		c-1.5-0.6-2.6-1.3-3.7-2.4c-1.1-1.1-1.8-2.2-2.4-3.7c-0.4-1.1-1-2.8-1.1-5.9C5.8,41.6,5.8,40.5,5.8,32s0-9.6,0.2-12.9
		c0.1-3.1,0.7-4.8,1.1-5.9c0.6-1.5,1.3-2.6,2.4-3.7c1.1-1.1,2.2-1.8,3.7-2.4c1.1-0.4,2.8-1,5.9-1.1C22.4,5.8,23.5,5.8,32,5.8 M32,0
		c-8.7,0-9.8,0-13.2,0.2c-3.4,0.2-5.7,0.7-7.8,1.5C8.9,2.5,7.1,3.6,5.4,5.4C3.6,7.1,2.5,8.9,1.7,11c-0.8,2-1.3,4.4-1.5,7.8
		C0,22.2,0,23.3,0,32c0,8.7,0,9.8,0.2,13.2c0.2,3.4,0.7,5.7,1.5,7.8c0.8,2.1,1.9,3.9,3.7,5.7c1.8,1.8,3.6,2.9,5.7,3.7
		c2,0.8,4.4,1.3,7.8,1.5C22.2,64,23.3,64,32,64s9.8,0,13.2-0.2c3.4-0.2,5.7-0.7,7.8-1.5c2.1-0.8,3.9-1.9,5.7-3.7
		c1.8-1.8,2.9-3.6,3.7-5.7c0.8-2,1.3-4.4,1.5-7.8C64,41.8,64,40.7,64,32s0-9.8-0.2-13.2c-0.2-3.4-0.7-5.7-1.5-7.8
		c-0.8-2.1-1.9-3.9-3.7-5.7c-1.8-1.8-3.6-2.9-5.7-3.7c-2-0.8-4.4-1.3-7.8-1.5C41.8,0,40.7,0,32,0L32,0z"/>
	<path d="M32,15.6c-9.1,0-16.4,7.4-16.4,16.4c0,9.1,7.4,16.4,16.4,16.4S48.4,41.1,48.4,32C48.4,22.9,41.1,15.6,32,15.6z M32,42.7
		c-5.9,0-10.7-4.8-10.7-10.7c0-5.9,4.8-10.7,10.7-10.7c5.9,0,10.7,4.8,10.7,10.7C42.7,37.9,37.9,42.7,32,42.7z"/>
	<circle cx="49.1" cy="14.9" r="3.8"/>
</g>
</svg>
