<?xml version="1.0" encoding="utf-8"?>
<!-- Generator: Adobe Illustrator 21.1.0, SVG Export Plug-In . SVG Version: 6.00 Build 0)  -->
<svg version="1.1" id="レイヤー_1" xmlns="http://www.w3.org/2000/svg" xmlns:xlink="http://www.w3.org/1999/xlink" x="0px"
	 y="0px" width="64px" height="64px" viewBox="0 0 64 64" enable-background="new 0 0 64 64" xml:space="preserve">
<path fill="#FFFFFF" d="M61,27.9c0-13-13-23.5-29-23.5C16,4.4,3,14.9,3,27.9c0,11.6,10.3,21.4,24.3,23.2c0.9,0.2,2.2,0.6,2.6,1.4
	c0.3,0.7,0.2,1.9,0.1,2.6c0,0-0.3,2-0.4,2.5c-0.1,0.7-0.6,2.9,2.5,1.6c3.1-1.3,16.7-9.8,22.8-16.8h0C59,37.8,61,33.1,61,27.9z
	 M21.8,34.8c0,0.3-0.3,0.6-0.6,0.6h-8.1h0c-0.2,0-0.3-0.1-0.4-0.2c0,0,0,0,0,0c0,0,0,0,0,0c-0.1-0.1-0.2-0.2-0.2-0.4v0V22.2
	c0-0.3,0.3-0.6,0.6-0.6h2c0.3,0,0.6,0.3,0.6,0.6v10h5.5c0.3,0,0.6,0.3,0.6,0.6V34.8z M26.7,34.8c0,0.3-0.3,0.6-0.6,0.6h-2
	c-0.3,0-0.6-0.3-0.6-0.6V22.2c0-0.3,0.3-0.6,0.6-0.6h2c0.3,0,0.6,0.3,0.6,0.6V34.8z M40.7,34.8c0,0.3-0.3,0.6-0.6,0.6h-2
	c-0.1,0-0.1,0-0.1,0c0,0,0,0,0,0c0,0,0,0,0,0c0,0,0,0,0,0c0,0,0,0,0,0c0,0,0,0,0,0c0,0,0,0,0,0c0,0,0,0,0,0c0,0,0,0,0,0
	c-0.1,0-0.1-0.1-0.1-0.1l-5.8-7.8v7.5c0,0.3-0.3,0.6-0.6,0.6h-2c-0.3,0-0.6-0.3-0.6-0.6V22.2c0-0.3,0.3-0.6,0.6-0.6h2c0,0,0,0,0,0
	c0,0,0,0,0,0c0,0,0,0,0,0c0,0,0,0,0,0c0,0,0,0,0,0c0,0,0,0,0,0c0,0,0,0,0,0c0,0,0,0,0,0c0,0,0,0,0,0c0,0,0,0,0,0c0,0,0,0,0,0
	c0,0,0,0,0,0c0,0,0,0,0,0c0,0,0,0,0,0c0,0,0,0,0,0c0,0,0,0,0,0c0,0,0,0,0,0c0,0,0,0,0,0c0,0,0,0,0,0.1l5.8,7.8v-7.5
	c0-0.3,0.3-0.6,0.6-0.6h2c0.3,0,0.6,0.3,0.6,0.6V34.8z M51.9,24.2c0,0.3-0.3,0.6-0.6,0.6h-5.5v2.1h5.5c0.3,0,0.6,0.3,0.6,0.6v2
	c0,0.3-0.3,0.6-0.6,0.6h-5.5v2.1h5.5c0.3,0,0.6,0.3,0.6,0.6v2c0,0.3-0.3,0.6-0.6,0.6h-8.1h0c-0.2,0-0.3-0.1-0.4-0.2c0,0,0,0,0,0
	c0,0,0,0,0,0c-0.1-0.1-0.2-0.2-0.2-0.4v0V22.2v0c0-0.2,0.1-0.3,0.2-0.4c0,0,0,0,0,0c0,0,0,0,0,0c0.1-0.1,0.2-0.2,0.4-0.2h0h8.1
	c0.3,0,0.6,0.3,0.6,0.6V24.2z"/>
</svg>
