<?xml version="1.0" encoding="utf-8"?>
<!-- Generator: Adobe Illustrator 21.1.0, SVG Export Plug-In . SVG Version: 6.00 Build 0)  -->
<svg version="1.1" id="レイヤー_1" xmlns="http://www.w3.org/2000/svg" xmlns:xlink="http://www.w3.org/1999/xlink" x="0px"
	 y="0px" width="64px" height="64px" viewBox="0 0 64 64" enable-background="new 0 0 64 64" xml:space="preserve">
<g id="Logo__x2014__FIXED">
	<g>
		<path fill="#FFFFFF" d="M20.8,56.4c22.6,0,35-18.8,35-35c0-0.5,0-1.1,0-1.6c2.4-1.7,4.5-3.9,6.1-6.4c-2.2,1-4.6,1.6-7.1,1.9
			c2.5-1.5,4.5-3.9,5.4-6.8c-2.4,1.4-5,2.4-7.8,3c-2.3-2.4-5.5-3.9-9-3.9c-6.8,0-12.3,5.5-12.3,12.3c0,1,0.1,1.9,0.3,2.8
			C21.3,22.2,12.2,17.3,6.2,9.9c-1.1,1.8-1.7,3.9-1.7,6.2c0,4.3,2.2,8,5.5,10.3c-2-0.1-3.9-0.6-5.6-1.5c0,0,0,0.1,0,0.2
			c0,6,4.2,10.9,9.9,12.1c-1,0.3-2.1,0.4-3.2,0.4c-0.8,0-1.6-0.1-2.3-0.2c1.6,4.9,6.1,8.5,11.5,8.5c-4.2,3.3-9.5,5.3-15.3,5.3
			c-1,0-2,0-2.9-0.2C7.4,54.4,13.9,56.4,20.8,56.4"/>
	</g>
</g>
</svg>
