<?xml version="1.0" encoding="utf-8"?>
<!-- Generator: Adobe Illustrator 21.1.0, SVG Export Plug-In . SVG Version: 6.00 Build 0)  -->
<svg version="1.1" id="レイヤー_1" xmlns="http://www.w3.org/2000/svg" xmlns:xlink="http://www.w3.org/1999/xlink" x="0px"
	 y="0px" width="64px" height="64px" viewBox="0 0 64 64" enable-background="new 0 0 64 64" xml:space="preserve">
<g id="YouTube_icon_2_">
	<g id="Lozenge">
		<g>
			<path d="M60.5,20.4c0,0-0.6-4-2.3-5.8c-2.2-2.3-4.7-2.3-5.8-2.5C44.2,11.5,32,11.5,32,11.5h0c0,0-12.2,0-20.4,0.6
				c-1.1,0.1-3.6,0.1-5.8,2.5c-1.7,1.8-2.3,5.8-2.3,5.8s-0.6,4.7-0.6,9.4v4.4c0,4.7,0.6,9.4,0.6,9.4s0.6,4,2.3,5.8
				c2.2,2.3,5.1,2.2,6.4,2.5c4.7,0.4,19.8,0.6,19.8,0.6s12.2,0,20.4-0.6c1.1-0.1,3.6-0.1,5.8-2.5c1.7-1.8,2.3-5.8,2.3-5.8
				s0.6-4.7,0.6-9.4v-4.4C61.1,25.1,60.5,20.4,60.5,20.4z M26,39.5l0-16.3l15.7,8.2L26,39.5z"/>
		</g>
	</g>
</g>
</svg>
